PathFileType	4	(X/Y/Z)	 3.0Hz3min.trc
DataRate	CameraRate	NumFrames	NumMarkers	Units	OrigDataRate	OrigDataStartFrame	OrigNumFrames
200	200	7	39	m	200	1	998
Frame#	Time	C7			LSH			RSH			MAN			RASI			LASI			HIPR			HIPL			RPSI			LPSI			COX			RTHI1			RTHI2			RTHI3			RTHI4			RLKN			RMKN			RSHA1			RSHA2			RSHA3			RSHA4			RHEEL			RMET5			RMET1			RTOE			LTHI1			LTHI2			LTHI3			LTHI4			LLKN			LMKN			LSHA1			LSHA2			LSHA3			LSHA4			LHEEL			LMET5			LMET1			LTOE			
		X1	Y1	Z1	X2	Y2	Z2	X3	Y3	Z3	X4	Y4	Z4	X5	Y5	Z5	X6	Y6	Z6	X7	Y7	Z7	X8	Y8	Z8	X9	Y9	Z9	X10	Y10	Z10	X11	Y11	Z11	X12	Y12	Z12	X13	Y13	Z13	X14	Y14	Z14	X15	Y15	Z15	X16	Y16	Z16	X17	Y17	Z17	X18	Y18	Z18	X19	Y19	Z19	X20	Y20	Z20	X21	Y21	Z21	X22	Y22	Z22	X23	Y23	Z23	X24	Y24	Z24	X25	Y25	Z25	X26	Y26	Z26	X27	Y27	Z27	X28	Y28	Z28	X29	Y29	Z29	X30	Y30	Z30	X31	Y31	Z31	X32	Y32	Z32	X33	Y33	Z33	X34	Y34	Z34	X35	Y35	Z35	X36	Y36	Z36	X37	Y37	Z37	X38	Y38	Z38	X39	Y39	Z39	
1	0.0050	-0.298723	1.536224	-0.534958	-0.237249	1.531290	-0.713982	-0.252651	1.528393	-0.347624	-0.143963	1.484478	-0.535723	-0.175700	1.017995	-0.416004	-0.178626	1.019006	-0.653016	-0.249878	1.093623	-0.367354	-0.246993	1.085707	-0.697221	-0.348424	1.085746	-0.487119	-0.349226	1.088757	-0.575786	-0.347479	1.089990	-0.528151	-0.265224	0.832889	-0.340471	-0.255176	0.774813	-0.335753	-0.190761	0.782931	-0.336478	-0.193649	0.844639	-0.343471	-0.245129	0.506839	-0.362100	-0.230173	0.494651	-0.482225	-0.321384	0.390373	-0.339012	-0.334040	0.350409	-0.347915	-0.274404	0.338782	-0.347101	-0.265646	0.378602	-0.341780	-0.402570	0.122366	-0.427876	-0.262159	0.039229	-0.357820	-0.202794	0.049351	-0.421218	-0.175462	0.037155	-0.414426	-0.273110	0.835866	-0.728453	-0.255775	0.777058	-0.736321	-0.192725	0.789709	-0.737210	-0.201032	0.849208	-0.729844	-0.258837	0.511518	-0.713272	-0.231539	0.505864	-0.592347	-0.332954	0.381246	-0.728689	-0.345454	0.343315	-0.721716	-0.284018	0.329560	-0.728640	-0.280151	0.372947	-0.735442	-0.412395	0.115293	-0.650932	-0.265575	0.040432	-0.724869	-0.208815	0.053515	-0.666823	-0.184536	0.038734	-0.674904	
2	0.0100	-0.298407	1.532849	-0.534674	-0.237057	1.527789	-0.713988	-0.252258	1.524879	-0.347143	-0.143821	1.481087	-0.535595	-0.175992	1.014946	-0.415794	-0.178955	1.015780	-0.652863	-0.250082	1.090500	-0.367256	-0.246900	1.082536	-0.697165	-0.348805	1.081965	-0.487076	-0.349657	1.084980	-0.575712	-0.347900	1.086132	-0.528150	-0.264850	0.829812	-0.340551	-0.254543	0.771752	-0.335656	-0.190203	0.780199	-0.336528	-0.193351	0.841789	-0.343622	-0.243544	0.503616	-0.361558	-0.229363	0.491755	-0.481967	-0.320538	0.387649	-0.338567	-0.333478	0.347870	-0.347568	-0.273848	0.336173	-0.347211	-0.264923	0.375472	-0.341634	-0.403969	0.119595	-0.427743	-0.262844	0.038540	-0.356410	-0.203183	0.048736	-0.422400	-0.175126	0.036571	-0.416276	-0.273017	0.832491	-0.728352	-0.255607	0.773739	-0.736222	-0.192552	0.786421	-0.737110	-0.200924	0.845918	-0.729742	-0.257706	0.508306	-0.713379	-0.231135	0.502736	-0.592306	-0.332170	0.378392	-0.728930	-0.344903	0.340528	-0.721853	-0.283495	0.326451	-0.728380	-0.279361	0.369781	-0.735336	-0.413548	0.112609	-0.651110	-0.265875	0.039447	-0.726360	-0.209231	0.052016	-0.664509	-0.184722	0.038001	-0.672176	
3	0.0150	-0.298068	1.529218	-0.534416	-0.236867	1.524103	-0.713969	-0.251909	1.521210	-0.346741	-0.143702	1.477475	-0.535485	-0.176312	1.011676	-0.415571	-0.179337	1.012334	-0.652685	-0.250341	1.087165	-0.367193	-0.246840	1.079292	-0.697095	-0.349267	1.078048	-0.487075	-0.350099	1.081063	-0.575664	-0.348409	1.082181	-0.528197	-0.264522	0.826464	-0.340558	-0.253987	0.768345	-0.335504	-0.189706	0.777208	-0.336565	-0.193121	0.838708	-0.343797	-0.241918	0.500143	-0.361180	-0.228288	0.488568	-0.481653	-0.319702	0.384764	-0.338154	-0.332964	0.345101	-0.347396	-0.273400	0.333077	-0.347343	-0.264208	0.372152	-0.341481	-0.405322	0.116726	-0.427536	-0.263075	0.037870	-0.355357	-0.203445	0.048379	-0.421744	-0.175100	0.036196	-0.416217	-0.272960	0.828825	-0.728280	-0.255436	0.770135	-0.736170	-0.192378	0.782912	-0.737009	-0.200854	0.842366	-0.729580	-0.256392	0.504873	-0.713522	-0.230352	0.499413	-0.592392	-0.331537	0.375459	-0.729113	-0.344523	0.337707	-0.721889	-0.283213	0.323197	-0.728107	-0.278740	0.366455	-0.735270	-0.414932	0.109768	-0.651412	-0.265694	0.038787	-0.727102	-0.209747	0.051154	-0.662961	-0.184869	0.037551	-0.670261	
4	0.0200	-0.297751	1.525551	-0.534163	-0.236680	1.520375	-0.713945	-0.251578	1.517494	-0.346353	-0.143533	1.473786	-0.535364	-0.176641	1.008342	-0.415351	-0.179732	1.008839	-0.652505	-0.250616	1.083759	-0.367128	-0.246773	1.075886	-0.697039	-0.349729	1.074083	-0.487075	-0.350544	1.077112	-0.575621	-0.348916	1.078185	-0.528238	-0.264220	0.823045	-0.340543	-0.253446	0.764876	-0.335328	-0.189221	0.774149	-0.336571	-0.192911	0.835555	-0.343945	-0.240266	0.496645	-0.360805	-0.227153	0.485313	-0.481327	-0.318838	0.381839	-0.337722	-0.332425	0.342302	-0.347193	-0.272929	0.329942	-0.347430	-0.263459	0.368806	-0.341321	-0.406666	0.113834	-0.427226	-0.263439	0.037182	-0.354166	-0.203664	0.047956	-0.421533	-0.174947	0.035793	-0.416648	-0.272918	0.825088	-0.728221	-0.255264	0.766460	-0.736137	-0.192208	0.779349	-0.736905	-0.200801	0.838757	-0.729412	-0.255042	0.501396	-0.713681	-0.229459	0.496026	-0.592511	-0.330918	0.372512	-0.729278	-0.344173	0.334870	-0.721902	-0.282968	0.319906	-0.727856	-0.278153	0.363094	-0.735220	-0.416315	0.106923	-0.651708	-0.265797	0.038123	-0.727902	-0.210280	0.050268	-0.661602	-0.185127	0.037140	-0.668619	
5	0.0250	-0.297461	1.521729	-0.533929	-0.236516	1.516515	-0.713913	-0.251297	1.513647	-0.346018	-0.143314	1.469900	-0.535238	-0.176994	1.004822	-0.415129	-0.180169	1.005180	-0.652313	-0.250936	1.080158	-0.367082	-0.246750	1.072276	-0.697000	-0.350227	1.069992	-0.487098	-0.350996	1.073053	-0.575607	-0.349458	1.074087	-0.528288	-0.263974	0.819423	-0.340472	-0.252955	0.761196	-0.335103	-0.188783	0.770904	-0.336534	-0.192759	0.832215	-0.344063	-0.238569	0.492999	-0.360510	-0.225833	0.481836	-0.480963	-0.317934	0.378807	-0.337293	-0.331862	0.339360	-0.347032	-0.272465	0.326548	-0.347496	-0.262671	0.365309	-0.341151	-0.407987	0.110862	-0.426808	-0.263596	0.036528	-0.353164	-0.203838	0.047690	-0.421189	-0.174877	0.035483	-0.416675	-0.272910	0.821125	-0.728200	-0.255092	0.762562	-0.736160	-0.192045	0.775617	-0.736806	-0.200788	0.834968	-0.729233	-0.253573	0.497765	-0.713873	-0.228249	0.492475	-0.592731	-0.330379	0.369502	-0.729400	-0.343924	0.331997	-0.721851	-0.282864	0.316509	-0.727629	-0.277670	0.359616	-0.735212	-0.417775	0.103967	-0.652015	-0.265924	0.037595	-0.728442	-0.210863	0.049729	-0.660502	-0.185385	0.036910	-0.667443	
6	0.0300	-0.297222	1.517833	-0.533698	-0.236321	1.512542	-0.713855	-0.251066	1.509675	-0.345712	-0.142998	1.465830	-0.535096	-0.177373	1.001128	-0.414914	-0.180635	1.001397	-0.652124	-0.251299	1.076366	-0.367028	-0.246826	1.068458	-0.696965	-0.350715	1.065773	-0.487119	-0.351456	1.068887	-0.575605	-0.349989	1.069868	-0.528324	-0.263798	0.815550	-0.340339	-0.252526	0.757308	-0.334831	-0.188391	0.767401	-0.336391	-0.192661	0.828666	-0.344085	-0.236826	0.489264	-0.360226	-0.224377	0.478182	-0.480562	-0.316966	0.375623	-0.336794	-0.331241	0.336330	-0.346895	-0.271935	0.323003	-0.347479	-0.261807	0.361625	-0.340910	-0.409269	0.107803	-0.426236	-0.263635	0.035894	-0.352276	-0.204016	0.047388	-0.420851	-0.174862	0.035277	-0.416640	-0.272942	0.816973	-0.728217	-0.254920	0.758486	-0.736245	-0.191897	0.771755	-0.736718	-0.200830	0.831047	-0.729072	-0.252031	0.494025	-0.714095	-0.226741	0.488774	-0.593032	-0.329861	0.366428	-0.729479	-0.343715	0.329070	-0.721748	-0.282819	0.313022	-0.727451	-0.277241	0.356054	-0.735237	-0.419218	0.100927	-0.652259	-0.266066	0.037163	-0.728774	-0.211425	0.049280	-0.659769	-0.185711	0.036746	-0.666736	
7	0.0350	-0.297038	1.513839	-0.533476	-0.236171	1.508471	-0.713802	-0.250899	1.505572	-0.345438	-0.142627	1.461585	-0.534959	-0.177788	0.997250	-0.414709	-0.181132	0.997473	-0.651939	-0.251712	1.072346	-0.366960	-0.247013	1.064343	-0.696932	-0.351217	1.061431	-0.487143	-0.351921	1.064617	-0.575610	-0.350523	1.065534	-0.528351	-0.263700	0.811488	-0.340155	-0.252154	0.753251	-0.334514	-0.188059	0.763722	-0.336152	-0.192638	0.824945	-0.344009	-0.235059	0.485436	-0.359971	-0.222801	0.474350	-0.480126	-0.315900	0.372323	-0.336291	-0.330532	0.333185	-0.346690	-0.271321	0.319328	-0.347410	-0.260845	0.357869	-0.340681	-0.410533	0.104666	-0.425590	-0.263691	0.035326	-0.351422	-0.204182	0.047180	-0.420796	-0.174803	0.035124	-0.416790	-0.273018	0.812616	-0.728292	-0.254755	0.754215	-0.736406	-0.191770	0.767742	-0.736682	-0.200929	0.826978	-0.728954	-0.250431	0.490181	-0.714346	-0.224928	0.484922	-0.593432	-0.329352	0.363280	-0.729550	-0.343521	0.326077	-0.721630	-0.282799	0.309452	-0.727329	-0.276841	0.352403	-0.735308	-0.420609	0.097780	-0.652414	-0.266305	0.036802	-0.729072	-0.211904	0.048946	-0.659240	-0.186019	0.036674	-0.666404	
